<?xml version="1.0" encoding="UTF-8" standalone="no"?>
<!DOCTYPE svg PUBLIC "-//W3C//DTD SVG 1.1//EN" "http://www.w3.org/Graphics/SVG/1.1/DTD/svg11.dtd">
<svg xmlns="http://www.w3.org/2000/svg" version="1.1" viewBox="0 0 359 359">
<g stroke-width="2.00" fill="none" stroke-linecap="butt">
<path stroke="#816b4a" vector-effect="non-scaling-stroke" d="
  M 113.00 102.96
  L 77.22 128.84
  A 0.84 0.83 53.9 0 0 77.04 130.01
  L 193.69 290.95
  Q 194.56 292.15 195.01 290.74
  L 213.54 233.25"
/>
<path stroke="#816f52" vector-effect="non-scaling-stroke" d="
  M 213.54 233.25
  L 234.65 168.03
  A 0.72 0.70 27.7 0 0 234.39 167.24
  L 130.12 91.44
  A 1.23 1.19 44.6 0 0 128.70 91.43
  L 113.00 102.96"
/>
<path stroke="#ff7d10" vector-effect="non-scaling-stroke" d="
  M 213.54 233.25
  L 213.23 230.75
  A 0.77 0.68 -85.6 0 0 212.77 230.14
  Q 211.94 229.84 211.19 228.81
  Q 164.90 165.26 118.81 101.56
  Q 117.79 100.15 115.00 102.25
  Q 114.11 102.92 113.00 102.96"
/>
</g>
<path fill="#025d8c" d="
  M 33.94 261.81
  Q 27.22 250.06 23.73 239.51
  Q 14.82 212.59 20.55 185.49
  Q 21.27 182.07 25.80 166.19
  Q 33.93 137.67 42.19 109.19
  Q 46.69 93.65 49.08 87.57
  Q 59.40 61.25 81.62 43.85
  Q 120.32 13.53 168.16 20.45
  Q 175.42 21.50 187.60 25.03
  Q 219.70 34.31 251.82 43.55
  Q 265.58 47.50 270.86 49.65
  Q 294.16 59.15 310.78 78.71
  Q 324.26 94.57 331.64 114.04
  Q 342.32 142.17 336.75 171.50
  Q 335.18 179.80 332.50 188.87
  Q 329.64 198.58 329.61 198.66
  Q 323.27 221.11 316.75 243.50
  Q 311.45 261.70 309.16 267.97
  Q 299.62 294.04 278.46 311.94
  Q 254.56 332.15 225.50 337.75
  Q 209.67 340.80 192.59 338.50
  Q 185.67 337.57 173.12 334.08
  Q 113.49 317.52 95.81 311.94
  Q 55.27 299.14 33.94 261.81
  Z
  M 113.00 102.96
  L 77.22 128.84
  A 0.84 0.83 53.9 0 0 77.04 130.01
  L 193.69 290.95
  Q 194.56 292.15 195.01 290.74
  L 213.54 233.25
  L 234.65 168.03
  A 0.72 0.70 27.7 0 0 234.39 167.24
  L 130.12 91.44
  A 1.23 1.19 44.6 0 0 128.70 91.43
  L 113.00 102.96
  Z"
/>
<path fill="#ff8118" d="
  M 213.54 233.25
  L 213.23 230.75
  A 0.77 0.68 -85.6 0 0 212.77 230.14
  Q 211.94 229.84 211.19 228.81
  Q 164.90 165.26 118.81 101.56
  Q 117.79 100.15 115.00 102.25
  Q 114.11 102.92 113.00 102.96
  L 128.70 91.43
  A 1.23 1.19 44.6 0 1 130.12 91.44
  L 234.39 167.24
  A 0.72 0.70 27.7 0 1 234.65 168.03
  L 213.54 233.25
  Z"
/>
<path fill="#ff7808" d="
  M 213.54 233.25
  L 195.01 290.74
  Q 194.56 292.15 193.69 290.95
  L 77.04 130.01
  A 0.84 0.83 53.9 0 1 77.22 128.84
  L 113.00 102.96
  Q 114.11 102.92 115.00 102.25
  Q 117.79 100.15 118.81 101.56
  Q 164.90 165.26 211.19 228.81
  Q 211.94 229.84 212.77 230.14
  A 0.77 0.68 -85.6 0 1 213.23 230.75
  L 213.54 233.25
  Z"
/>
</svg>
